<svg width="512" height="512" viewBox="0 0 512 512" fill="none" xmlns="http://www.w3.org/2000/svg">
<path d="M0 428C0 427.558 0.358172 427.2 0.8 427.2H511.2C511.642 427.2 512 427.558 512 428V428C512 428.442 511.642 428.8 511.2 428.8H0.799988C0.35816 428.8 0 428.442 0 428V428Z" fill="#FF7D00"/>
<path d="M0 428C0 410.99 13.7896 397.2 30.8 397.2H481.2C498.21 397.2 512 410.99 512 428V428C512 428.212 511.916 428.416 511.766 428.566C511.616 428.716 511.412 428.8 511.2 428.8H0.8H0H0.8C0.587827 428.8 0.384344 428.716 0.234315 428.566C0.0842855 428.416 -9.27438e-09 428.212 0 428L0 428ZM512 428.8H0H512ZM0 428.8V427.2V428.8ZM512 427.2V428.8V427.2Z" fill="#FF7D00"/>
<path d="M0 256.4C0 255.958 0.358172 255.6 0.8 255.6H511.2C511.642 255.6 512 255.958 512 256.4V256.4C512 256.842 511.642 257.2 511.2 257.2H0.799988C0.35816 257.2 0 256.842 0 256.4V256.4Z" fill="#FF7D00"/>
<path d="M0 256.4C0 239.39 13.7896 225.6 30.8 225.6H481.2C498.21 225.6 512 239.39 512 256.4V256.4C512 256.612 511.916 256.816 511.766 256.966C511.616 257.116 511.412 257.2 511.2 257.2H0.8H0H0.8C0.587827 257.2 0.384344 257.116 0.234315 256.966C0.0842855 256.816 -9.27438e-09 256.612 0 256.4L0 256.4ZM512 257.2H0H512ZM0 257.2V255.6V257.2ZM512 255.6V257.2V255.6Z" fill="#FF7D00"/>
<path d="M0 84.8C0 84.3582 0.358172 84 0.8 84H511.2C511.642 84 512 84.3582 512 84.8V84.8C512 85.2418 511.642 85.6 511.2 85.6H0.799988C0.35816 85.6 0 85.2418 0 84.8V84.8Z" fill="#FF7D00"/>
<path d="M0 84.8C0 67.7896 13.7896 54 30.8 54H481.2C498.21 54 512 67.7896 512 84.8V84.8C512 85.0122 511.916 85.2157 511.766 85.3657C511.616 85.5157 511.412 85.6 511.2 85.6H0.8H0H0.8C0.587827 85.6 0.384344 85.5157 0.234315 85.3657C0.0842855 85.2157 -9.27438e-09 85.0122 0 84.8L0 84.8ZM512 85.6H0H512ZM0 85.6V84V85.6ZM512 84V85.6V84Z" fill="#FF7D00"/>
<path d="M512 84.8001C512 85.2419 511.642 85.6001 511.2 85.6001L0.799988 85.6001C0.35816 85.6001 0 85.2419 0 84.8001V84.8001C0 84.3583 0.358172 84.0001 0.8 84.0001L511.2 84.0001C511.642 84.0001 512 84.3583 512 84.8001V84.8001Z" fill="#FF7D00"/>
<path d="M512 84.8001C512 101.81 498.21 115.6 481.2 115.6L30.8 115.6C13.7896 115.6 0 101.81 0 84.8001V84.8001C-1.22097e-05 84.5879 0.0842733 84.3844 0.234302 84.2344C0.384331 84.0844 0.587815 84.0001 0.799988 84.0001L511.2 84.0001H512H511.2C511.412 84.0001 511.616 84.0844 511.766 84.2344C511.916 84.3844 512 84.5879 512 84.8001V84.8001ZM0 84.0001L512 84.0001L0 84.0001ZM512 84.0001V85.6001V84.0001ZM0 85.6001V84.0001V85.6001Z" fill="#FF7D00"/>
<path d="M512 256.4C512 256.842 511.642 257.2 511.2 257.2L0.799988 257.2C0.35816 257.2 0 256.842 0 256.4V256.4C0 255.958 0.358172 255.6 0.8 255.6L511.2 255.6C511.642 255.6 512 255.958 512 256.4V256.4Z" fill="#FF7D00"/>
<path d="M512 256.4C512 273.41 498.21 287.2 481.2 287.2L30.8 287.2C13.7896 287.2 0 273.41 0 256.4V256.4C-1.22097e-05 256.188 0.0842733 255.984 0.234302 255.834C0.384331 255.684 0.587815 255.6 0.799988 255.6L511.2 255.6H512H511.2C511.412 255.6 511.616 255.684 511.766 255.834C511.916 255.984 512 256.188 512 256.4V256.4ZM0 255.6L512 255.6L0 255.6ZM512 255.6V257.2V255.6ZM0 257.2V255.6V257.2Z" fill="#FF7D00"/>
<path d="M512 428C512 428.442 511.642 428.8 511.2 428.8L0.799988 428.8C0.35816 428.8 0 428.442 0 428V428C0 427.558 0.358172 427.2 0.8 427.2L511.2 427.2C511.642 427.2 512 427.558 512 428V428Z" fill="#FF7D00"/>
<path d="M512 428C512 445.01 498.21 458.8 481.2 458.8L30.8 458.8C13.7896 458.8 0 445.01 0 428V428C-1.22097e-05 427.788 0.0842733 427.584 0.234302 427.434C0.384331 427.284 0.587815 427.2 0.799988 427.2L511.2 427.2H512H511.2C511.412 427.2 511.616 427.284 511.766 427.434C511.916 427.584 512 427.788 512 428V428ZM0 427.2L512 427.2L0 427.2ZM512 427.2V428.8V427.2ZM0 428.8V427.2V428.8Z" fill="#FF7D00"/>
</svg>
