<svg width="144" height="144" viewBox="0 0 144 144" fill="none" xmlns="http://www.w3.org/2000/svg">
<path fill-rule="evenodd" clip-rule="evenodd" d="M84.3689 60.6844C84.3689 79.2878 69.2878 94.3689 50.6844 94.3689C32.081 94.3689 17 79.2878 17 60.6844C17 42.081 32.081 27 50.6844 27C69.2878 27 84.3689 42.081 84.3689 60.6844ZM50.6844 101.369C73.1538 101.369 91.3689 83.1538 91.3689 60.6844C91.3689 38.215 73.1538 20 50.6844 20C28.215 20 10 38.215 10 60.6844C10 83.1538 28.215 101.369 50.6844 101.369ZM53.5055 60.6845C53.5055 52.2824 56.0525 44.4752 60.4165 37.9928C62.5887 38.9257 64.6001 40.1613 66.3976 41.6466C62.6806 47.0625 60.5055 53.6195 60.5055 60.6845C60.5055 67.7496 62.6806 74.3066 66.3976 79.7225C64.6001 81.2078 62.5887 82.4434 60.4165 83.3763C56.0525 76.8939 53.5055 69.0867 53.5055 60.6845ZM94.19 101.369C89.8608 101.369 85.6896 100.693 81.7761 99.4403C83.9257 97.7137 85.9285 95.8118 87.763 93.7565C89.8434 94.1585 91.9921 94.369 94.19 94.369C112.793 94.369 127.874 79.2879 127.874 60.6845C127.874 42.0811 112.793 27.0001 94.19 27.0001C91.9921 27.0001 89.8434 27.2106 87.763 27.6125C85.9285 25.5572 83.9257 23.6554 81.7761 21.9288C85.6896 20.6763 89.8608 20.0001 94.19 20.0001C116.659 20.0001 134.874 38.2151 134.874 60.6845C134.874 83.1539 116.659 101.369 94.19 101.369Z" fill="#FF7D00"/>
<path d="M45.7182 118.872V126H43.5822V111.6H47.0142L49.8222 118.632C50.2302 119.688 51.0222 121.8 51.5742 123.528C52.1742 121.824 52.9422 119.76 53.3982 118.56L56.2062 111.6H59.3982V126H57.1902V118.872C57.1902 117.24 57.2622 115.08 57.2862 113.448H57.2622C56.6622 115.272 55.8222 117.672 55.0302 119.712L52.4382 126H50.4222L47.9022 119.616C47.0622 117.456 46.3182 115.248 45.7182 113.448H45.6942C45.7182 115.104 45.7182 117.192 45.7182 118.872ZM66.3622 116.304C64.4422 116.304 63.1702 117.336 62.8822 119.424H69.6022C69.4582 117.432 68.4262 116.304 66.3622 116.304ZM66.4582 126.264C63.0022 126.264 60.7462 124.152 60.7462 120.48C60.7462 116.736 63.0262 114.504 66.4342 114.504C69.7702 114.504 71.5702 116.64 71.5702 119.712C71.5702 120.072 71.5702 120.528 71.5222 121.056H62.8342C63.0502 123.24 64.3222 124.44 66.4582 124.44C68.4742 124.44 69.2662 123.408 69.6502 122.088L71.4982 122.64C70.9222 124.848 69.3142 126.264 66.4582 126.264ZM74.9665 126H72.8785V114.792H74.9665V118.248H75.0145C75.4705 115.632 76.5265 114.792 78.3265 114.792H79.0225V117.096H78.0145C75.9025 117.096 74.9665 117.912 74.9665 120.072V126ZM84.1103 116.544C82.2143 116.544 81.4223 117.384 81.4223 118.728C81.4223 120.072 82.1903 120.864 84.1583 120.864C86.1263 120.864 86.9423 120.096 86.9423 118.728C86.9423 117.36 85.9823 116.544 84.1103 116.544ZM84.3263 127.992C87.5903 127.992 88.2863 127.488 88.2863 126.456C88.2863 125.88 87.9263 125.376 86.8703 125.376H82.4783C81.1103 125.376 80.5343 126.024 80.5343 126.672C80.5343 127.632 81.3263 127.992 84.3263 127.992ZM90.0143 126.456C90.0143 128.544 88.5983 129.6 84.3743 129.6C80.0783 129.6 78.8543 128.712 78.8543 127.272C78.8543 126.312 79.7423 125.568 81.4463 125.328C80.5343 125.184 79.9103 124.704 79.9103 123.888C79.9103 123.336 80.4143 122.808 81.1823 122.496L82.0463 122.04C80.4143 121.512 79.5263 120.312 79.5263 118.656C79.5263 116.16 81.2783 114.792 84.2783 114.792H89.6783V116.592H88.0703C87.4943 116.592 86.9663 116.568 86.1263 116.52V116.568C87.6383 116.832 88.7663 117.48 88.7663 119.136C88.7663 121.224 87.1583 122.328 84.1103 122.328C83.3903 122.328 82.7423 122.232 82.1903 122.088L81.8783 122.544C81.7103 122.832 81.5663 122.976 81.5663 123.216C81.5663 123.672 81.9503 123.864 82.6463 123.864C84.0143 123.864 85.5023 123.792 86.7743 123.792C89.0063 123.792 90.0143 124.776 90.0143 126.456ZM95.8934 116.304C93.9734 116.304 92.7014 117.336 92.4134 119.424H99.1334C98.9894 117.432 97.9574 116.304 95.8934 116.304ZM95.9894 126.264C92.5334 126.264 90.2774 124.152 90.2774 120.48C90.2774 116.736 92.5574 114.504 95.9654 114.504C99.3014 114.504 101.101 116.64 101.101 119.712C101.101 120.072 101.101 120.528 101.053 121.056H92.3654C92.5814 123.24 93.8534 124.44 95.9894 124.44C98.0054 124.44 98.7974 123.408 99.1814 122.088L101.029 122.64C100.453 124.848 98.8454 126.264 95.9894 126.264Z" fill="black"/>
</svg>
