<svg width="737" height="737" viewBox="0 0 737 737" fill="none" xmlns="http://www.w3.org/2000/svg">
<path fill-rule="evenodd" clip-rule="evenodd" d="M368.5 122.833C232.822 122.833 122.833 232.822 122.833 368.5C122.833 432.96 147.648 491.637 188.303 535.484C189.838 530.406 191.88 525.417 194.543 520.656C203.571 504.514 214.96 489.588 228.473 476.39C242.034 463.144 257.334 452.028 273.837 443.246C248.703 419.187 232.989 385.563 232.989 348.028C232.989 273.857 294.346 214.958 368.5 214.958C442.654 214.958 504.011 273.857 504.011 348.028C504.011 385.563 488.297 419.187 463.163 443.246C479.666 452.028 494.966 463.144 508.527 476.39C522.04 489.588 533.429 504.514 542.457 520.656C545.12 525.417 547.162 530.406 548.697 535.484C589.353 491.637 614.167 432.96 614.167 368.5C614.167 232.822 504.178 122.833 368.5 122.833ZM489.525 582.343C490.718 576.209 491.315 570.451 491.333 565.349C491.363 556.92 489.818 552.358 488.855 550.636C482.696 539.625 474.905 529.401 465.614 520.327C439.979 495.289 405.059 481.097 368.5 481.097C331.941 481.097 297.022 495.289 271.386 520.327C262.096 529.401 254.304 539.624 248.145 550.636C247.182 552.358 245.638 556.92 245.667 565.349C245.685 570.451 246.283 576.209 247.475 582.343C283.177 602.598 324.449 614.167 368.5 614.167C412.551 614.167 453.823 602.598 489.525 582.343ZM368.5 419.681C410.108 419.681 442.594 386.922 442.594 348.028C442.594 309.133 410.108 276.375 368.5 276.375C326.893 276.375 294.406 309.133 294.406 348.028C294.406 386.922 326.893 419.681 368.5 419.681ZM61.4167 368.5C61.4167 198.903 198.903 61.4167 368.5 61.4167C538.098 61.4167 675.583 198.903 675.583 368.5C675.583 477.738 618.523 573.626 532.728 628.021C485.214 658.145 428.846 675.583 368.5 675.583C308.154 675.583 251.786 658.145 204.272 628.021C118.477 573.626 61.4167 477.738 61.4167 368.5Z" fill="#FF8C42"/>
</svg>
