<svg width="354" height="342" viewBox="0 0 354 342" fill="none" xmlns="http://www.w3.org/2000/svg">
<path d="M81.576 298.488V327H73.032V269.4H86.76L97.992 297.528C99.624 301.752 102.792 310.2 105 317.112C107.4 310.296 110.472 302.04 112.296 297.24L123.528 269.4H136.296V327H127.464V298.488C127.464 291.96 127.752 283.32 127.848 276.792H127.752C125.352 284.088 121.992 293.688 118.824 301.848L108.456 327H100.392L90.312 301.464C86.952 292.824 83.976 283.992 81.576 276.792H81.48C81.576 283.416 81.576 291.768 81.576 298.488ZM164.152 288.216C156.472 288.216 151.384 292.344 150.232 300.696H177.112C176.536 292.728 172.408 288.216 164.152 288.216ZM164.536 328.056C150.712 328.056 141.688 319.608 141.688 304.92C141.688 289.944 150.808 281.016 164.44 281.016C177.784 281.016 184.984 289.56 184.984 301.848C184.984 303.288 184.984 305.112 184.792 307.224H150.04C150.904 315.96 155.992 320.76 164.536 320.76C172.6 320.76 175.768 316.632 177.304 311.352L184.696 313.56C182.392 322.392 175.96 328.056 164.536 328.056ZM198.569 327H190.217V282.168H198.569V295.992H198.761C200.585 285.528 204.809 282.168 212.009 282.168H214.793V291.384H210.761C202.313 291.384 198.569 294.648 198.569 303.288V327ZM235.145 289.176C227.561 289.176 224.393 292.536 224.393 297.912C224.393 303.288 227.465 306.456 235.337 306.456C243.209 306.456 246.473 303.384 246.473 297.912C246.473 292.44 242.633 289.176 235.145 289.176ZM236.009 334.968C249.065 334.968 251.849 332.952 251.849 328.824C251.849 326.52 250.409 324.504 246.185 324.504H228.617C223.145 324.504 220.841 327.096 220.841 329.688C220.841 333.528 224.009 334.968 236.009 334.968ZM258.761 328.824C258.761 337.176 253.097 341.4 236.201 341.4C219.017 341.4 214.12 337.848 214.12 332.088C214.12 328.248 217.673 325.272 224.489 324.312C220.841 323.736 218.345 321.816 218.345 318.552C218.345 316.344 220.361 314.232 223.433 312.984L226.889 311.16C220.361 309.048 216.809 304.248 216.809 297.624C216.809 287.64 223.817 282.168 235.817 282.168H257.417V289.368H250.985C248.681 289.368 246.569 289.272 243.209 289.08V289.272C249.257 290.328 253.769 292.92 253.769 299.544C253.769 307.896 247.337 312.312 235.145 312.312C232.265 312.312 229.673 311.928 227.465 311.352L226.217 313.176C225.545 314.328 224.969 314.904 224.969 315.864C224.969 317.688 226.505 318.456 229.289 318.456C234.761 318.456 240.713 318.168 245.801 318.168C254.729 318.168 258.761 322.104 258.761 328.824ZM282.277 288.216C274.597 288.216 269.509 292.344 268.357 300.696H295.237C294.661 292.728 290.533 288.216 282.277 288.216ZM282.661 328.056C268.837 328.056 259.813 319.608 259.813 304.92C259.813 289.944 268.933 281.016 282.565 281.016C295.909 281.016 303.109 289.56 303.109 301.848C303.109 303.288 303.109 305.112 302.917 307.224H268.165C269.029 315.96 274.117 320.76 282.661 320.76C290.725 320.76 293.893 316.632 295.429 311.352L302.821 313.56C300.517 322.392 294.085 328.056 282.661 328.056Z" fill="white"/>
<path fill-rule="evenodd" clip-rule="evenodd" d="M200 110C200 159.706 159.706 200 110 200C60.2944 200 20 159.706 20 110C20 60.2944 60.2944 20 110 20C159.706 20 200 60.2944 200 110ZM110 220C170.751 220 220 170.751 220 110C220 49.2487 170.751 0 110 0C49.2487 0 0 49.2487 0 110C0 170.751 49.2487 220 110 220ZM134 110C134 85.3937 142.079 62.6744 155.73 44.3502C161.254 48.2053 166.269 52.7397 170.653 57.8324C160.167 72.5483 154 90.5539 154 110C154 129.446 160.167 147.452 170.653 162.168C166.269 167.26 161.254 171.795 155.73 175.65C142.079 157.326 134 134.606 134 110ZM244 220C222.533 220 202.503 213.851 185.574 203.218C190.953 198.851 195.948 194.028 200.498 188.807C213.392 195.94 228.222 200 244 200C293.706 200 334 159.706 334 110C334 60.2944 293.706 20 244 20C228.222 20 213.392 24.0603 200.498 31.1929C195.948 25.9723 190.953 21.1491 185.574 16.7822C202.503 6.14918 222.533 0 244 0C304.751 0 354 49.2487 354 110C354 170.751 304.751 220 244 220Z" fill="#FF7D00"/>
</svg>
